<?xml version="1.0" standalone="no"?>
<!DOCTYPE svg PUBLIC "-//W3C//DTD SVG 20010904//EN" "http://www.w3.org/TR/2001/REC-SVG-20010904/DTD/svg10.dtd">
<svg version="1.0" xmlns="http://www.w3.org/2000/svg" width="2000.000000pt" height="371.000000pt"
    viewBox="0 0 2000.000000 371.000000" preserveAspectRatio="xMidYMid meet">

    <g transform="translate(0.000000,371.000000) scale(0.100000,-0.100000)" fill="#000000" stroke="none">
        <path d="M6485 3674 c-450 -44 -766 -184 -967 -430 -261 -320 -276 -712 -42
-1041 205 -288 580 -458 1054 -480 549 -24 1023 223 1225 640 164 341 109 706
-148 974 -162 168 -360 265 -646 314 -109 18 -386 32 -476 23z m460 -639 c64
-18 114 -56 165 -123 45 -61 55 -99 47 -184 -10 -113 -91 -224 -202 -278 -185
-89 -455 -11 -536 156 -30 62 -25 187 11 257 80 159 300 232 515 172z" />
        <path d="M18576 3670 c-309 -33 -566 -162 -651 -329 -53 -104 -63 -251 -26
-371 49 -158 145 -255 391 -394 47 -27 109 -66 139 -88 89 -67 112 -155 54
-210 -22 -20 -34 -23 -111 -23 -79 1 -104 6 -259 58 -167 56 -173 57 -208 43
-28 -12 -41 -27 -63 -73 -24 -51 -27 -70 -27 -165 0 -127 6 -138 110 -210 184
-128 485 -195 825 -185 281 9 497 55 688 148 82 39 117 64 170 117 204 202
203 479 -2 669 -48 44 -101 75 -293 170 -253 124 -306 162 -318 224 -9 50 15
103 57 126 58 32 173 24 298 -20 58 -20 116 -37 129 -37 54 0 119 104 137 215
31 204 -250 327 -775 339 -97 3 -216 1 -265 -4z" />
        <path d="M11310 3640 c-138 -9 -210 -23 -310 -60 -286 -104 -512 -383 -581
-715 -24 -113 -25 -326 -4 -451 66 -385 272 -600 628 -655 86 -14 848 -6 1002
10 235 25 324 88 378 270 16 56 20 107 24 330 4 181 2 275 -6 301 -16 53 -68
95 -133 110 -84 18 -284 24 -368 11 -144 -23 -172 -58 -171 -216 1 -127 15
-227 40 -277 l18 -38 -55 0 c-69 0 -130 28 -167 76 -102 134 -109 503 -12 690
25 49 99 110 163 134 82 31 212 36 416 16 104 -10 175 -13 190 -7 59 23 88 90
88 208 -1 231 -80 262 -685 268 -187 2 -392 0 -455 -5z" />
        <path d="M273 3599 c-60 -29 -67 -55 -66 -231 2 -228 11 -237 260 -237 149 -1
152 -1 171 -25 18 -24 19 -52 24 -609 5 -528 7 -587 23 -620 22 -48 65 -83
118 -99 60 -17 775 -17 834 0 53 16 95 51 119 99 18 36 19 72 19 632 l0 593
24 19 c21 17 41 19 178 19 239 0 253 14 252 238 0 160 -10 190 -69 220 l-44
22 -901 0 c-888 0 -901 0 -942 -21z" />
        <path d="M2603 3609 c-44 -13 -79 -59 -93 -121 -43 -192 -38 -1492 6 -1596 20
-48 51 -81 92 -99 53 -22 409 -36 640 -24 291 15 295 19 310 261 13 232 21
240 222 240 201 0 209 -8 222 -240 11 -174 20 -201 79 -232 53 -27 333 -40
601 -28 242 11 274 21 316 97 34 62 42 226 42 878 0 565 -7 698 -37 782 -15
40 -26 52 -63 71 -43 22 -51 22 -400 22 -353 0 -355 0 -406 -24 -48 -22 -89
-64 -110 -111 -5 -11 -11 -172 -14 -357 -5 -335 -5 -338 -28 -360 -22 -22 -29
-23 -202 -23 -173 0 -180 1 -202 23 -23 22 -23 25 -28 360 -3 185 -9 346 -14
357 -21 47 -62 89 -110 111 -51 24 -51 24 -421 23 -203 0 -384 -5 -402 -10z" />
        <path d="M8182 3610 c-45 -10 -78 -44 -99 -99 -16 -42 -18 -90 -18 -521 0
-467 0 -477 24 -565 95 -365 355 -590 781 -676 144 -29 381 -36 509 -15 417
70 700 317 782 681 11 45 14 164 14 485 0 457 -8 569 -48 650 -32 65 -61 72
-267 68 -188 -4 -215 -12 -246 -75 -18 -35 -19 -74 -24 -533 l-5 -495 -28 -47
c-85 -144 -314 -142 -397 4 l-25 43 -1 465 c-1 397 -3 473 -17 520 -19 65 -50
98 -104 111 -47 11 -785 10 -831 -1z" />
        <path d="M12890 3607 c-41 -14 -75 -61 -89 -125 -21 -90 -33 -528 -27 -962 10
-607 15 -648 91 -705 50 -38 132 -47 470 -47 386 0 457 12 492 84 7 13 17 94
22 180 13 231 20 238 225 238 144 0 184 -14 202 -70 7 -19 15 -100 19 -180 8
-170 17 -193 81 -221 102 -46 754 -45 843 0 46 24 74 60 90 116 19 70 33 792
22 1170 -12 427 -23 479 -104 516 -39 17 -70 19 -398 19 l-357 0 -53 -28 c-39
-20 -62 -41 -84 -77 l-30 -48 -5 -336 c-3 -185 -9 -344 -14 -353 -14 -31 -73
-40 -238 -36 -223 4 -202 -35 -208 391 -5 337 -5 343 -28 380 -28 44 -73 80
-121 96 -48 16 -753 14 -801 -2z" />
        <path d="M15665 3606 c-65 -29 -70 -43 -73 -210 -6 -253 0 -260 228 -264 181
-3 196 -5 211 -33 8 -15 12 -196 15 -602 4 -567 5 -582 25 -625 13 -25 38 -54
60 -69 35 -23 54 -27 187 -35 173 -12 651 -3 704 12 45 13 93 51 116 94 15 28
17 84 18 614 1 320 5 593 8 606 9 38 46 46 202 46 238 0 247 10 242 256 -3
145 -4 154 -27 178 -14 14 -41 30 -60 36 -23 6 -368 10 -931 10 -720 -1 -901
-3 -925 -14z" />
        <path d="M13590 931 c-142 -44 -220 -203 -191 -391 25 -161 110 -252 248 -266
80 -8 136 9 183 56 41 41 50 38 50 -21 0 -27 3 -29 35 -29 l35 0 0 170 0 170
-130 0 -130 0 0 -40 0 -40 85 0 c84 0 85 0 85 -25 0 -65 -69 -146 -142 -165
-85 -23 -165 16 -210 104 -30 57 -37 204 -14 274 27 82 104 142 181 142 69 0
151 -52 175 -110 12 -28 15 -30 49 -24 20 4 38 8 39 10 2 1 -2 19 -8 40 -19
56 -88 120 -151 138 -55 17 -146 20 -189 7z" />
        <path d="M3914 605 l81 -325 52 0 51 0 16 53 c8 28 41 145 73 259 31 114 60
203 63 197 4 -5 38 -122 76 -260 l69 -249 52 0 c52 0 52 0 62 38 23 85 151
602 151 607 0 4 -19 5 -42 3 l-41 -3 -62 -258 c-34 -141 -64 -259 -67 -262 -3
-3 -19 48 -37 112 -17 65 -50 185 -73 266 l-41 148 -51 -3 -50 -3 -71 -257
c-39 -141 -73 -259 -76 -262 -4 -4 -71 263 -126 502 -4 19 -12 22 -48 22 l-42
0 81 -325z" />
        <path d="M4760 605 l0 -325 40 0 40 0 0 138 c0 75 4 152 10 171 20 70 86 109
154 90 58 -16 61 -25 66 -218 l5 -176 38 -3 37 -3 0 176 c0 190 -6 220 -54
264 -20 19 -40 26 -86 29 -71 5 -110 -9 -145 -50 l-25 -30 0 131 0 131 -40 0
-40 0 0 -325z" />
        <path d="M6970 605 l0 -325 190 0 190 0 0 35 0 35 -150 0 -150 0 0 115 0 115
120 0 120 0 0 35 0 35 -120 0 -120 0 0 105 0 105 150 0 150 0 0 35 0 35 -190
0 -190 0 0 -325z" />
        <path d="M9550 895 l0 -34 88 -3 87 -3 3 -287 2 -288 40 0 40 0 0 290 0 290
85 0 85 0 0 35 0 35 -215 0 -215 0 0 -35z" />
        <path d="M10090 605 l0 -325 40 0 40 0 0 144 c0 80 5 157 11 173 25 66 89 100
154 82 60 -17 65 -33 65 -226 l0 -173 40 0 40 0 0 175 c0 190 -6 220 -54 264
-20 19 -40 26 -86 29 -71 5 -110 -9 -145 -50 l-25 -30 0 131 0 131 -40 0 -40
0 0 -325z" />
        <path d="M12260 605 l0 -325 35 0 35 0 0 138 c0 75 4 152 10 171 20 70 86 109
155 90 62 -17 70 -41 73 -231 l4 -168 34 0 34 0 0 180 c0 199 -4 216 -60 264
-27 22 -41 26 -93 26 -66 0 -105 -17 -139 -62 -17 -22 -18 -19 -18 110 l0 132
-35 0 -35 0 0 -325z" />
        <path d="M12824 808 c-9 -50 -11 -53 -46 -62 -34 -9 -38 -13 -38 -43 0 -32 1
-33 45 -33 l45 0 0 -165 0 -165 28 -31 c25 -28 34 -32 88 -33 l59 -1 3 33 c3
31 2 32 -37 32 -64 0 -71 18 -71 187 l0 143 60 0 60 0 0 35 0 35 -60 0 -60 0
0 60 0 60 -33 0 c-32 0 -34 -2 -43 -52z" />
        <path d="M5369 730 c-109 -57 -150 -220 -88 -348 50 -102 185 -142 295 -87 45
23 94 76 94 102 0 6 -15 13 -32 17 -28 5 -36 2 -51 -19 -39 -53 -126 -71 -188
-39 -32 16 -68 81 -69 122 0 22 0 22 176 22 l176 0 -7 53 c-13 97 -42 145
-107 178 -50 26 -150 25 -199 -1z m184 -77 c17 -15 47 -71 47 -88 0 -3 -58 -5
-130 -5 l-130 0 0 25 c0 14 13 39 28 56 45 50 135 56 185 12z" />
        <path d="M5943 730 c-17 -10 -39 -32 -47 -47 l-15 -28 -1 43 0 42 -40 0 -40 0
0 -230 0 -230 40 0 40 0 0 148 c0 120 3 153 18 181 26 52 63 74 122 75 50 1
50 1 50 34 0 32 -1 32 -47 32 -30 0 -60 -7 -80 -20z" />
        <path d="M6238 730 c-72 -39 -112 -119 -112 -220 2 -155 100 -250 244 -237 69
6 123 35 151 81 26 43 24 53 -13 60 -28 5 -36 2 -51 -19 -39 -53 -117 -70
-181 -40 -37 18 -61 54 -71 108 l-7 37 177 0 178 0 -7 56 c-8 71 -36 125 -83
161 -31 24 -47 28 -112 31 -61 2 -84 -2 -113 -18z m188 -79 c25 -24 44 -60 44
-82 0 -5 -56 -9 -130 -9 -143 0 -145 1 -116 59 37 71 146 88 202 32z" />
        <path d="M7998 730 c-72 -38 -111 -116 -110 -219 0 -114 56 -201 148 -231 86
-29 204 7 245 74 26 43 24 53 -13 60 -28 5 -36 2 -51 -19 -39 -53 -117 -70
-181 -40 -37 18 -61 54 -70 108 l-7 37 177 0 177 0 -7 56 c-10 90 -55 159
-119 183 -46 18 -147 13 -189 -9z m179 -67 c21 -14 53 -70 53 -92 0 -7 -42
-11 -130 -11 -143 0 -145 1 -115 60 32 61 130 83 192 43z" />
        <path d="M8579 735 c-15 -8 -36 -29 -48 -47 l-21 -33 0 43 0 42 -40 0 -40 0 2
-227 3 -228 38 -3 37 -3 0 138 c0 76 5 155 10 175 16 55 68 91 131 92 48 1 49
1 49 34 0 32 0 32 -47 32 -27 -1 -60 -7 -74 -15z" />
        <path d="M10710 739 c-35 -14 -78 -57 -103 -104 -33 -61 -31 -193 3 -255 33
-58 92 -99 155 -106 103 -12 184 34 225 128 19 44 22 65 18 130 -8 141 -84
219 -212 217 -34 0 -72 -5 -86 -10z m160 -79 c42 -29 61 -73 62 -142 1 -113
-49 -178 -135 -178 -87 0 -137 63 -137 170 0 98 34 154 102 170 41 9 76 3 108
-20z" />
        <path d="M11785 737 c-43 -20 -92 -80 -106 -129 -6 -24 -9 -77 -7 -119 7 -127
67 -201 172 -215 56 -8 127 16 156 53 l20 26 0 -59 c0 -69 -23 -123 -60 -141
-34 -17 -115 -16 -149 2 -16 8 -38 26 -48 41 l-20 27 -31 -19 c-18 -10 -32
-22 -32 -27 0 -21 78 -86 115 -96 136 -38 264 18 295 127 5 21 10 145 10 285
l0 247 -40 0 c-39 0 -40 -1 -40 -35 l0 -35 -34 37 c-32 35 -38 37 -102 40 -43
2 -80 -2 -99 -10z m174 -75 c39 -29 61 -80 61 -145 0 -106 -45 -167 -127 -174
-92 -8 -145 56 -145 172 0 84 40 153 97 168 31 8 88 -2 114 -21z" />
        <path d="M14246 730 c-17 -10 -37 -32 -45 -47 l-16 -28 -3 43 c-3 41 -4 42
-38 42 l-34 0 0 -230 0 -230 34 0 34 0 4 153 c3 123 7 158 21 185 22 41 95 77
138 68 28 -5 29 -4 29 29 l0 35 -47 0 c-31 0 -59 -7 -77 -20z" />
        <path d="M14539 727 c-65 -35 -101 -98 -107 -190 -6 -98 10 -152 62 -203 112
-112 298 -69 350 81 44 130 -7 278 -111 321 -52 22 -143 18 -194 -9z m181 -66
c86 -60 79 -260 -10 -306 -68 -35 -158 -5 -187 63 -20 48 -20 149 0 188 40 78
128 103 197 55z" />
        <path d="M15800 732 c-66 -33 -98 -112 -67 -171 20 -39 57 -60 137 -76 126
-26 156 -45 143 -94 -18 -68 -187 -65 -213 4 -8 21 -16 25 -51 25 -40 0 -41
-1 -35 -27 9 -38 75 -99 122 -112 81 -22 165 -8 216 38 25 22 32 37 36 79 8
87 -35 124 -173 152 -87 18 -115 34 -115 69 0 43 29 63 94 63 59 1 106 -20
106 -47 0 -11 11 -15 40 -15 45 0 50 12 24 61 -32 63 -183 92 -264 51z" />
        <path d="M7400 733 c0 -5 38 -107 84 -228 l84 -220 43 0 43 0 83 220 c46 121
83 223 83 228 0 4 -18 7 -39 7 l-39 0 -38 -107 c-21 -60 -50 -141 -64 -182
l-27 -74 -40 114 c-22 63 -50 144 -63 182 l-24 67 -43 0 c-24 0 -43 -3 -43 -7z" />
        <path d="M8783 708 c8 -18 51 -119 96 -224 44 -105 81 -199 81 -208 0 -26 -29
-88 -52 -113 -15 -16 -33 -23 -60 -23 -38 0 -39 -1 -36 -33 3 -31 5 -32 54
-35 63 -4 93 18 127 91 26 53 217 558 217 571 0 4 -19 6 -42 4 l-41 -3 -60
-173 c-33 -95 -63 -169 -67 -165 -4 4 -37 83 -75 176 l-68 167 -44 0 -43 0 13
-32z" />
        <path d="M11150 556 c0 -174 1 -185 23 -217 59 -88 194 -92 260 -8 l27 34 0
-42 c0 -42 1 -43 35 -43 l35 0 0 230 0 230 -34 0 -34 0 -4 -147 c-4 -164 -16
-206 -67 -236 -59 -35 -140 -12 -160 44 -6 18 -11 99 -11 185 l0 154 -35 0
-35 0 0 -184z" />
        <path d="M14998 510 l77 -230 41 0 42 0 58 165 c33 91 62 165 65 165 3 0 31
-74 63 -165 l58 -165 42 0 42 0 72 224 c40 123 72 227 72 230 0 3 -17 6 -37 6
l-38 0 -49 -170 c-28 -94 -53 -175 -57 -181 -4 -6 -33 69 -66 167 l-60 179
-40 3 -41 3 -58 -180 c-31 -100 -60 -181 -64 -181 -3 0 -30 81 -59 180 l-54
180 -43 0 -42 0 76 -230z" />
    </g>
</svg>